<svg height="512pt" viewBox="-61 0 512 512" width="512pt" xmlns="http://www.w3.org/2000/svg"><path d="m360 120c0 24.902344-20.097656 45-45 45h-240c-24.902344 0-45-20.097656-45-45h-30v392h390v-392zm-165 195c-16.5 0-30-13.5-30-30s13.5-30 30-30 30 13.5 30 30-13.5 30-30 30zm0 0" fill="#ffb64c"/><path d="m390 120v392h-195v-197c16.5 0 30-13.5 30-30s-13.5-30-30-30v-90h120c24.902344 0 45-20.097656 45-45zm0 0" fill="#ff9100"/><path d="m0 0v120c0 41.398438 33.601562 75 75 75h240c41.398438 0 75-33.601562 75-75v-120zm195 135c-16.5 0-30-13.5-30-30s13.5-30 30-30 30 13.5 30 30-13.5 30-30 30zm0 0" fill="#ffd396"/><path d="m390 0v120c0 41.398438-33.601562 75-75 75h-120v-60c16.5 0 30-13.5 30-30s-13.5-30-30-30v-75zm0 0" fill="#ffb64c"/><path d="m210 105h30v180h-30zm0 0" fill="#575f64"/><path d="m150 105h30v180h-30zm0 0" fill="#7c8388"/><path d="m195 60c-24.902344 0-45 20.097656-45 45s20.097656 45 45 45 45-20.097656 45-45-20.097656-45-45-45zm0 0" fill="#fff5f5"/><path d="m195 240c-24.902344 0-45 20.097656-45 45s20.097656 45 45 45 45-20.097656 45-45-20.097656-45-45-45zm0 0" fill="#fff5f5"/><path d="m240 285c0 24.902344-20.097656 45-45 45v-90c24.902344 0 45 20.097656 45 45zm0 0" fill="#efe2dd"/><path d="m195 300c-8.269531 0-15-6.730469-15-15s6.730469-15 15-15 15 6.730469 15 15-6.730469 15-15 15zm0 0" fill="#7c8388"/><path d="m210 285c0-8.269531-6.730469-15-15-15v30c8.269531 0 15-6.730469 15-15zm0 0" fill="#575f64"/><path d="m195 150v-90c24.902344 0 45 20.097656 45 45s-20.097656 45-45 45zm0 0" fill="#efe2dd"/><path d="m195 120c-8.269531 0-15-6.730469-15-15s6.730469-15 15-15 15 6.730469 15 15-6.730469 15-15 15zm0 0" fill="#7c8388"/><path d="m210 105c0-8.269531-6.730469-15-15-15v30c8.269531 0 15-6.730469 15-15zm0 0" fill="#575f64"/></svg>